<mxfile host="app.diagrams.net" agent="Mozilla/5.0 (Windows NT 10.0; Win64; x64) AppleWebKit/537.36 (KHTML, like Gecko) Chrome/141.0.0.0 Safari/537.36" version="28.2.8">
  <diagram name="Halaman-1" id="5_w9AxbEN_6rnrVtJRkW">
    <mxGraphModel dx="1901" dy="1036" grid="1" gridSize="10" guides="1" tooltips="1" connect="1" arrows="1" fold="1" page="1" pageScale="1" pageWidth="827" pageHeight="1169" math="0" shadow="0">
      <root>
        <mxCell id="0" />
        <mxCell id="1" parent="0" />
        <mxCell id="ACHc1v6rXymE3tVFQivt-2" value="Delivery Instant (Biteship, Go-Send)" style="swimlane;childLayout=stackLayout;resizeParent=1;resizeParentMax=0;horizontal=1;startSize=20;horizontalStack=0;html=1;" vertex="1" parent="1">
          <mxGeometry x="340" y="300" width="4220" height="13120" as="geometry" />
        </mxCell>
        <mxCell id="ACHc1v6rXymE3tVFQivt-3" value="Flutter" style="swimlane;startSize=20;horizontal=0;html=1;" vertex="1" parent="ACHc1v6rXymE3tVFQivt-2">
          <mxGeometry y="20" width="4220" height="1450" as="geometry" />
        </mxCell>
        <mxCell id="ACHc1v6rXymE3tVFQivt-4" value="Html/Js" style="swimlane;startSize=20;horizontal=0;html=1;" vertex="1" parent="ACHc1v6rXymE3tVFQivt-2">
          <mxGeometry y="1470" width="4220" height="3140" as="geometry" />
        </mxCell>
        <mxCell id="ACHc1v6rXymE3tVFQivt-5" value="" style="edgeStyle=orthogonalEdgeStyle;rounded=0;orthogonalLoop=1;jettySize=auto;html=1;" edge="1" parent="ACHc1v6rXymE3tVFQivt-4" source="ACHc1v6rXymE3tVFQivt-7" target="ACHc1v6rXymE3tVFQivt-8">
          <mxGeometry relative="1" as="geometry" />
        </mxCell>
        <mxCell id="ACHc1v6rXymE3tVFQivt-6" style="edgeStyle=orthogonalEdgeStyle;rounded=0;orthogonalLoop=1;jettySize=auto;html=1;entryX=0.5;entryY=1;entryDx=0;entryDy=0;endArrow=none;endFill=0;" edge="1" parent="ACHc1v6rXymE3tVFQivt-4" source="ACHc1v6rXymE3tVFQivt-7" target="ACHc1v6rXymE3tVFQivt-9">
          <mxGeometry relative="1" as="geometry" />
        </mxCell>
        <mxCell id="ACHc1v6rXymE3tVFQivt-7" value="Start" style="ellipse;whiteSpace=wrap;html=1;aspect=fixed;" vertex="1" parent="ACHc1v6rXymE3tVFQivt-4">
          <mxGeometry x="284" y="1200" width="80" height="80" as="geometry" />
        </mxCell>
        <mxCell id="ACHc1v6rXymE3tVFQivt-8" value="Ajax Request" style="whiteSpace=wrap;html=1;" vertex="1" parent="ACHc1v6rXymE3tVFQivt-4">
          <mxGeometry x="544" y="1210" width="120" height="60" as="geometry" />
        </mxCell>
        <mxCell id="ACHc1v6rXymE3tVFQivt-9" value="checkout" style="shape=partialRectangle;whiteSpace=wrap;html=1;left=0;right=0;fillColor=none;" vertex="1" parent="ACHc1v6rXymE3tVFQivt-4">
          <mxGeometry x="264" y="990" width="120" height="60" as="geometry" />
        </mxCell>
        <mxCell id="ACHc1v6rXymE3tVFQivt-10" value="Django" style="swimlane;startSize=20;horizontal=0;html=1;" vertex="1" parent="ACHc1v6rXymE3tVFQivt-2">
          <mxGeometry y="4610" width="4220" height="2840" as="geometry" />
        </mxCell>
        <object placeholders="1" c4Name="GetCourierList" c4Type="SystemScopeBoundary" c4Application="Kurir" label="&lt;font style=&quot;font-size: 16px&quot;&gt;&lt;b&gt;&lt;div style=&quot;text-align: left&quot;&gt;%c4Name%&lt;/div&gt;&lt;/b&gt;&lt;/font&gt;&lt;div style=&quot;text-align: left&quot;&gt;[%c4Application%]&lt;/div&gt;" id="ACHc1v6rXymE3tVFQivt-11">
          <mxCell style="rounded=1;fontSize=11;whiteSpace=wrap;html=1;dashed=1;arcSize=20;fillColor=none;strokeColor=#004C99;fontColor=#333333;labelBackgroundColor=none;align=left;verticalAlign=bottom;labelBorderColor=none;spacingTop=0;spacing=10;dashPattern=8 4;metaEdit=1;rotatable=0;perimeter=rectanglePerimeter;noLabel=0;labelPadding=0;allowArrows=0;connectable=0;expand=0;recursiveResize=0;editable=1;pointerEvents=0;absoluteArcSize=1;points=[[0.25,0,0],[0.5,0,0],[0.75,0,0],[1,0.25,0],[1,0.5,0],[1,0.75,0],[0.75,1,0],[0.5,1,0],[0.25,1,0],[0,0.75,0],[0,0.5,0],[0,0.25,0]];" vertex="1" parent="ACHc1v6rXymE3tVFQivt-10">
            <mxGeometry x="80" y="90" width="1150" height="290" as="geometry" />
          </mxCell>
        </object>
        <mxCell id="ACHc1v6rXymE3tVFQivt-12" value="&lt;b&gt;Web.Controller&lt;/b&gt;&lt;br&gt;&lt;div&gt;&lt;b&gt;&lt;br&gt;&lt;/b&gt;&lt;/div&gt;&lt;div&gt;Parameter:&lt;br&gt;&lt;div&gt;- &lt;b&gt;identity: &lt;/b&gt;String&amp;nbsp;&lt;br&gt;&lt;/div&gt;&lt;/div&gt;" style="shape=note;whiteSpace=wrap;html=1;backgroundOutline=1;darkOpacity=0.05;size=14;" vertex="1" parent="ACHc1v6rXymE3tVFQivt-10">
          <mxGeometry x="92" y="100" width="178" height="138.75" as="geometry" />
        </mxCell>
        <mxCell id="ACHc1v6rXymE3tVFQivt-13" style="edgeStyle=orthogonalEdgeStyle;rounded=0;orthogonalLoop=1;jettySize=auto;html=1;entryX=0;entryY=0.5;entryDx=0;entryDy=0;" edge="1" parent="ACHc1v6rXymE3tVFQivt-10" source="ACHc1v6rXymE3tVFQivt-14" target="ACHc1v6rXymE3tVFQivt-15">
          <mxGeometry relative="1" as="geometry" />
        </mxCell>
        <mxCell id="ACHc1v6rXymE3tVFQivt-14" value="Get Courier List" style="rounded=1;whiteSpace=wrap;html=1;" vertex="1" parent="ACHc1v6rXymE3tVFQivt-10">
          <mxGeometry x="360" y="205" width="151" height="60" as="geometry" />
        </mxCell>
        <mxCell id="ACHc1v6rXymE3tVFQivt-15" value="&lt;div style=&quot;font-family: Consolas, &amp;quot;Courier New&amp;quot;, monospace; font-size: 14px; line-height: 19px; white-space: pre;&quot;&gt;data_option&lt;/div&gt;" style="html=1;dashed=0;whiteSpace=wrap;shape=partialRectangle;right=0;left=0;" vertex="1" parent="ACHc1v6rXymE3tVFQivt-10">
          <mxGeometry x="880" y="222.5" width="185.5" height="25" as="geometry" />
        </mxCell>
        <mxCell id="ACHc1v6rXymE3tVFQivt-16" value="Kurir API" style="swimlane;startSize=20;horizontal=0;html=1;" vertex="1" parent="ACHc1v6rXymE3tVFQivt-2">
          <mxGeometry y="7450" width="4220" height="1850" as="geometry" />
        </mxCell>
        <object placeholders="1" c4Name="GetHistoryDigitalCS" c4Type="SystemScopeBoundary" c4Application="DigitalCS" label="&lt;font style=&quot;font-size: 16px&quot;&gt;&lt;b&gt;&lt;div style=&quot;text-align: left&quot;&gt;%c4Name%&lt;/div&gt;&lt;/b&gt;&lt;/font&gt;&lt;div style=&quot;text-align: left&quot;&gt;[%c4Application%]&lt;/div&gt;" id="ACHc1v6rXymE3tVFQivt-17">
          <mxCell style="rounded=1;fontSize=11;whiteSpace=wrap;html=1;dashed=1;arcSize=20;fillColor=none;strokeColor=#004C99;fontColor=#333333;labelBackgroundColor=none;align=left;verticalAlign=bottom;labelBorderColor=none;spacingTop=0;spacing=10;dashPattern=8 4;metaEdit=1;rotatable=0;perimeter=rectanglePerimeter;noLabel=0;labelPadding=0;allowArrows=0;connectable=0;expand=0;recursiveResize=0;editable=1;pointerEvents=0;absoluteArcSize=1;points=[[0.25,0,0],[0.5,0,0],[0.75,0,0],[1,0.25,0],[1,0.5,0],[1,0.75,0],[0.75,1,0],[0.5,1,0],[0.25,1,0],[0,0.75,0],[0,0.5,0],[0,0.25,0]];" vertex="1" parent="ACHc1v6rXymE3tVFQivt-16">
            <mxGeometry x="100" y="100" width="1800" height="1670" as="geometry" />
          </mxCell>
        </object>
        <mxCell id="ACHc1v6rXymE3tVFQivt-18" value="&lt;div&gt;Contoh Request :&lt;br&gt;{&lt;br&gt;&lt;span style=&quot;white-space: pre;&quot;&gt;&#x9;&lt;/span&gt; order [ { &lt;br&gt;&lt;br&gt;&lt;span style=&quot;white-space: pre;&quot;&gt;&#x9;&lt;/span&gt;&lt;span style=&quot;white-space: pre;&quot;&gt;&#x9;&lt;/span&gt; order_detail [&lt;br&gt;      { &lt;br&gt;&lt;span style=&quot;white-space: pre;&quot;&gt;&#x9;&lt;/span&gt;&lt;span style=&quot;white-space: pre;&quot;&gt;&#x9;&lt;/span&gt;&lt;span style=&quot;white-space: pre;&quot;&gt;&#x9;&lt;/span&gt;volume&lt;/div&gt;&lt;div&gt;&lt;span style=&quot;white-space: pre;&quot;&gt;&#x9;&lt;/span&gt;&lt;span style=&quot;white-space: pre;&quot;&gt;&#x9;&lt;/span&gt;&lt;span style=&quot;white-space: pre;&quot;&gt;&#x9;&lt;/span&gt;weight&lt;br&gt;&lt;span style=&quot;white-space: pre;&quot;&gt;&#x9;&lt;/span&gt;&lt;span style=&quot;white-space: pre;&quot;&gt;&#x9;&lt;/span&gt;}]&lt;br&gt;&lt;span style=&quot;white-space: pre;&quot;&gt;&#x9;&lt;/span&gt;}]&lt;span style=&quot;white-space: pre;&quot;&gt;&#x9;&lt;/span&gt;&lt;br&gt;}&lt;/div&gt;" style="shape=note;whiteSpace=wrap;html=1;backgroundOutline=1;darkOpacity=0.05;align=left;spacingLeft=10;" vertex="1" parent="ACHc1v6rXymE3tVFQivt-16">
          <mxGeometry x="111" y="110" width="232" height="190" as="geometry" />
        </mxCell>
        <mxCell id="ACHc1v6rXymE3tVFQivt-19" style="edgeStyle=orthogonalEdgeStyle;rounded=0;orthogonalLoop=1;jettySize=auto;html=1;entryX=0;entryY=0.5;entryDx=0;entryDy=0;" edge="1" parent="ACHc1v6rXymE3tVFQivt-16" source="ACHc1v6rXymE3tVFQivt-20" target="ACHc1v6rXymE3tVFQivt-22">
          <mxGeometry relative="1" as="geometry">
            <mxPoint x="601" y="230" as="targetPoint" />
          </mxGeometry>
        </mxCell>
        <mxCell id="ACHc1v6rXymE3tVFQivt-20" value="Get Courier List Price" style="rounded=1;whiteSpace=wrap;html=1;" vertex="1" parent="ACHc1v6rXymE3tVFQivt-16">
          <mxGeometry x="371" y="200" width="151" height="60" as="geometry" />
        </mxCell>
        <mxCell id="ACHc1v6rXymE3tVFQivt-21" value="" style="edgeStyle=orthogonalEdgeStyle;rounded=0;orthogonalLoop=1;jettySize=auto;html=1;" edge="1" parent="ACHc1v6rXymE3tVFQivt-16" source="ACHc1v6rXymE3tVFQivt-22" target="ACHc1v6rXymE3tVFQivt-26">
          <mxGeometry relative="1" as="geometry" />
        </mxCell>
        <mxCell id="ACHc1v6rXymE3tVFQivt-22" value="Iterate $order" style="ellipse;whiteSpace=wrap;html=1;aspect=fixed;" vertex="1" parent="ACHc1v6rXymE3tVFQivt-16">
          <mxGeometry x="831" y="190" width="80" height="80" as="geometry" />
        </mxCell>
        <mxCell id="ACHc1v6rXymE3tVFQivt-23" value="" style="edgeStyle=orthogonalEdgeStyle;rounded=0;orthogonalLoop=1;jettySize=auto;html=1;" edge="1" parent="ACHc1v6rXymE3tVFQivt-16" source="ACHc1v6rXymE3tVFQivt-24" target="ACHc1v6rXymE3tVFQivt-34">
          <mxGeometry relative="1" as="geometry" />
        </mxCell>
        <mxCell id="ACHc1v6rXymE3tVFQivt-24" value="Iterate $order.order_detail" style="ellipse;whiteSpace=wrap;html=1;aspect=fixed;" vertex="1" parent="ACHc1v6rXymE3tVFQivt-16">
          <mxGeometry x="831" y="510" width="80" height="80" as="geometry" />
        </mxCell>
        <mxCell id="ACHc1v6rXymE3tVFQivt-25" style="edgeStyle=orthogonalEdgeStyle;rounded=0;orthogonalLoop=1;jettySize=auto;html=1;entryX=0.5;entryY=0;entryDx=0;entryDy=0;" edge="1" parent="ACHc1v6rXymE3tVFQivt-16" source="ACHc1v6rXymE3tVFQivt-26" target="ACHc1v6rXymE3tVFQivt-24">
          <mxGeometry relative="1" as="geometry" />
        </mxCell>
        <mxCell id="ACHc1v6rXymE3tVFQivt-26" value="$sumVolume = 0&lt;div&gt;$sumWeight = 0&lt;/div&gt;" style="whiteSpace=wrap;html=1;" vertex="1" parent="ACHc1v6rXymE3tVFQivt-16">
          <mxGeometry x="811" y="360" width="120" height="60" as="geometry" />
        </mxCell>
        <mxCell id="ACHc1v6rXymE3tVFQivt-27" value="" style="edgeStyle=orthogonalEdgeStyle;rounded=0;orthogonalLoop=1;jettySize=auto;html=1;" edge="1" parent="ACHc1v6rXymE3tVFQivt-16" target="ACHc1v6rXymE3tVFQivt-31">
          <mxGeometry relative="1" as="geometry">
            <mxPoint x="871" y="740" as="sourcePoint" />
          </mxGeometry>
        </mxCell>
        <mxCell id="ACHc1v6rXymE3tVFQivt-28" value="YES" style="edgeLabel;html=1;align=center;verticalAlign=middle;resizable=0;points=[];" vertex="1" connectable="0" parent="ACHc1v6rXymE3tVFQivt-27">
          <mxGeometry x="-0.0684" y="-3" relative="1" as="geometry">
            <mxPoint as="offset" />
          </mxGeometry>
        </mxCell>
        <mxCell id="ACHc1v6rXymE3tVFQivt-29" style="edgeStyle=orthogonalEdgeStyle;rounded=0;orthogonalLoop=1;jettySize=auto;html=1;entryX=1;entryY=0;entryDx=0;entryDy=0;" edge="1" parent="ACHc1v6rXymE3tVFQivt-16" source="ACHc1v6rXymE3tVFQivt-31" target="ACHc1v6rXymE3tVFQivt-24">
          <mxGeometry relative="1" as="geometry">
            <Array as="points">
              <mxPoint x="1090" y="880" />
              <mxPoint x="1090" y="522" />
            </Array>
          </mxGeometry>
        </mxCell>
        <mxCell id="ACHc1v6rXymE3tVFQivt-30" value="" style="edgeStyle=orthogonalEdgeStyle;rounded=0;orthogonalLoop=1;jettySize=auto;html=1;" edge="1" parent="ACHc1v6rXymE3tVFQivt-16" source="ACHc1v6rXymE3tVFQivt-31" target="ACHc1v6rXymE3tVFQivt-36">
          <mxGeometry relative="1" as="geometry" />
        </mxCell>
        <mxCell id="ACHc1v6rXymE3tVFQivt-31" value="$sumVolume += $order_detail.volume&lt;div&gt;$sumWeight += $order_detail.weight&lt;/div&gt;" style="whiteSpace=wrap;html=1;" vertex="1" parent="ACHc1v6rXymE3tVFQivt-16">
          <mxGeometry x="811" y="850" width="120" height="60" as="geometry" />
        </mxCell>
        <mxCell id="ACHc1v6rXymE3tVFQivt-32" style="edgeStyle=orthogonalEdgeStyle;rounded=0;orthogonalLoop=1;jettySize=auto;html=1;entryX=1;entryY=0.5;entryDx=0;entryDy=0;" edge="1" parent="ACHc1v6rXymE3tVFQivt-16" source="ACHc1v6rXymE3tVFQivt-34" target="ACHc1v6rXymE3tVFQivt-24">
          <mxGeometry relative="1" as="geometry">
            <Array as="points">
              <mxPoint x="980" y="710" />
              <mxPoint x="980" y="630" />
              <mxPoint x="931" y="630" />
              <mxPoint x="931" y="550" />
            </Array>
          </mxGeometry>
        </mxCell>
        <mxCell id="ACHc1v6rXymE3tVFQivt-33" value="NO" style="edgeLabel;html=1;align=center;verticalAlign=middle;resizable=0;points=[];" vertex="1" connectable="0" parent="ACHc1v6rXymE3tVFQivt-32">
          <mxGeometry x="-0.6383" relative="1" as="geometry">
            <mxPoint x="-1" as="offset" />
          </mxGeometry>
        </mxCell>
        <mxCell id="ACHc1v6rXymE3tVFQivt-34" value="is_merchandise_article == true&amp;nbsp;" style="rhombus;whiteSpace=wrap;html=1;" vertex="1" parent="ACHc1v6rXymE3tVFQivt-16">
          <mxGeometry x="831" y="670" width="80" height="80" as="geometry" />
        </mxCell>
        <mxCell id="ACHc1v6rXymE3tVFQivt-35" value="" style="edgeStyle=orthogonalEdgeStyle;rounded=0;orthogonalLoop=1;jettySize=auto;html=1;" edge="1" parent="ACHc1v6rXymE3tVFQivt-16" source="ACHc1v6rXymE3tVFQivt-36" target="ACHc1v6rXymE3tVFQivt-37">
          <mxGeometry relative="1" as="geometry" />
        </mxCell>
        <mxCell id="ACHc1v6rXymE3tVFQivt-36" value="End Iterate" style="ellipse;whiteSpace=wrap;html=1;" vertex="1" parent="ACHc1v6rXymE3tVFQivt-16">
          <mxGeometry x="831" y="980" width="80" height="80" as="geometry" />
        </mxCell>
        <mxCell id="ACHc1v6rXymE3tVFQivt-37" value="Check Price" style="whiteSpace=wrap;html=1;" vertex="1" parent="ACHc1v6rXymE3tVFQivt-16">
          <mxGeometry x="811" y="1150" width="120" height="60" as="geometry" />
        </mxCell>
        <mxCell id="ACHc1v6rXymE3tVFQivt-38" value="Postgres" style="swimlane;startSize=20;horizontal=0;html=1;" vertex="1" parent="ACHc1v6rXymE3tVFQivt-2">
          <mxGeometry y="9300" width="4220" height="3820" as="geometry" />
        </mxCell>
        <mxCell id="ACHc1v6rXymE3tVFQivt-70" style="edgeStyle=orthogonalEdgeStyle;rounded=0;orthogonalLoop=1;jettySize=auto;html=1;entryX=0;entryY=0.25;entryDx=0;entryDy=0;jumpStyle=arc;" edge="1" parent="ACHc1v6rXymE3tVFQivt-38" source="ACHc1v6rXymE3tVFQivt-39" target="ACHc1v6rXymE3tVFQivt-68">
          <mxGeometry relative="1" as="geometry" />
        </mxCell>
        <mxCell id="ACHc1v6rXymE3tVFQivt-73" value="JOIN" style="edgeLabel;html=1;align=center;verticalAlign=middle;resizable=0;points=[];" vertex="1" connectable="0" parent="ACHc1v6rXymE3tVFQivt-70">
          <mxGeometry x="0.4435" y="1" relative="1" as="geometry">
            <mxPoint x="-1" as="offset" />
          </mxGeometry>
        </mxCell>
        <mxCell id="ACHc1v6rXymE3tVFQivt-39" value="m_courier_3rd_party (MC3P)" style="swimlane;fontStyle=0;childLayout=stackLayout;horizontal=1;startSize=30;horizontalStack=0;resizeParent=1;resizeParentMax=0;resizeLast=0;collapsible=1;marginBottom=0;whiteSpace=wrap;html=1;" vertex="1" parent="ACHc1v6rXymE3tVFQivt-38">
          <mxGeometry x="1060" y="490" width="160" height="120" as="geometry" />
        </mxCell>
        <mxCell id="ACHc1v6rXymE3tVFQivt-40" value="delivery_type&lt;div&gt;status&lt;/div&gt;&lt;div&gt;courier_id&lt;/div&gt;&lt;div&gt;api_service_id&lt;/div&gt;" style="text;strokeColor=none;fillColor=none;align=left;verticalAlign=middle;spacingLeft=4;spacingRight=4;overflow=hidden;points=[[0,0.5],[1,0.5]];portConstraint=eastwest;rotatable=0;whiteSpace=wrap;html=1;" vertex="1" parent="ACHc1v6rXymE3tVFQivt-39">
          <mxGeometry y="30" width="160" height="90" as="geometry" />
        </mxCell>
        <object placeholders="1" c4Name="pgMemberMH" c4Type="SystemScopeBoundary" c4Application="DB Name" label="&lt;font style=&quot;font-size: 10px;&quot;&gt;&lt;b style=&quot;font-size: 10px;&quot;&gt;&lt;div style=&quot;text-align: left; font-size: 10px;&quot;&gt;%c4Name%&lt;/div&gt;&lt;/b&gt;&lt;/font&gt;&lt;div style=&quot;text-align: left; font-size: 10px;&quot;&gt;[%c4Application%]&lt;/div&gt;" id="ACHc1v6rXymE3tVFQivt-41">
          <mxCell style="rounded=1;fontSize=10;whiteSpace=wrap;html=1;dashed=1;arcSize=20;fillColor=none;strokeColor=#004C99;fontColor=#333333;labelBackgroundColor=none;align=left;verticalAlign=bottom;labelBorderColor=none;spacingTop=0;spacing=10;dashPattern=8 4;metaEdit=1;rotatable=0;perimeter=rectanglePerimeter;noLabel=0;labelPadding=0;allowArrows=0;connectable=0;expand=0;recursiveResize=0;editable=1;pointerEvents=0;absoluteArcSize=1;points=[[0.25,0,0],[0.5,0,0],[0.75,0,0],[1,0.25,0],[1,0.5,0],[1,0.75,0],[0.75,1,0],[0.5,1,0],[0.25,1,0],[0,0.75,0],[0,0.5,0],[0,0.25,0]];strokeWidth=2;" vertex="1" parent="ACHc1v6rXymE3tVFQivt-38">
            <mxGeometry x="100" y="110" width="2510" height="1820" as="geometry" />
          </mxCell>
        </object>
        <mxCell id="ACHc1v6rXymE3tVFQivt-42" value="Input" style="swimlane;fontStyle=0;childLayout=stackLayout;horizontal=1;startSize=30;horizontalStack=0;resizeParent=1;resizeParentMax=0;resizeLast=0;collapsible=1;marginBottom=0;whiteSpace=wrap;html=1;" vertex="1" parent="ACHc1v6rXymE3tVFQivt-38">
          <mxGeometry x="160" y="180" width="153" height="140" as="geometry" />
        </mxCell>
        <mxCell id="ACHc1v6rXymE3tVFQivt-43" style="edgeStyle=orthogonalEdgeStyle;rounded=0;orthogonalLoop=1;jettySize=auto;html=1;endArrow=none;endFill=0;" edge="1" parent="ACHc1v6rXymE3tVFQivt-42" source="ACHc1v6rXymE3tVFQivt-44">
          <mxGeometry relative="1" as="geometry">
            <mxPoint x="210" y="45" as="targetPoint" />
          </mxGeometry>
        </mxCell>
        <mxCell id="ACHc1v6rXymE3tVFQivt-44" value="&lt;div style=&quot;text-align: center;&quot;&gt;&lt;span style=&quot;text-align: left;&quot;&gt;in_akum_volume&lt;/span&gt;&lt;/div&gt;&lt;div style=&quot;text-align: center;&quot;&gt;&lt;span style=&quot;text-align: left;&quot;&gt;in_akum_weight&lt;/span&gt;&lt;/div&gt;" style="text;strokeColor=none;fillColor=none;align=left;verticalAlign=middle;spacingLeft=4;spacingRight=4;overflow=hidden;points=[[0,0.5],[1,0.5]];portConstraint=eastwest;rotatable=0;whiteSpace=wrap;html=1;" vertex="1" parent="ACHc1v6rXymE3tVFQivt-42">
          <mxGeometry y="30" width="153" height="110" as="geometry" />
        </mxCell>
        <object placeholders="1" c4Name="f_member_update_login_failed" c4Type="SystemScopeBoundary" c4Application="PostgreSQL_Query" label="&lt;font style=&quot;font-size: 16px&quot;&gt;&lt;b&gt;&lt;div style=&quot;text-align: left&quot;&gt;%c4Name%&lt;/div&gt;&lt;/b&gt;&lt;/font&gt;&lt;div style=&quot;text-align: left&quot;&gt;[%c4Application%]&lt;/div&gt;" id="ACHc1v6rXymE3tVFQivt-45">
          <mxCell style="rounded=1;fontSize=11;whiteSpace=wrap;html=1;dashed=1;arcSize=20;labelBackgroundColor=none;align=left;verticalAlign=bottom;labelBorderColor=none;spacingTop=0;spacing=10;dashPattern=8 4;metaEdit=1;rotatable=0;perimeter=rectanglePerimeter;noLabel=0;labelPadding=0;allowArrows=0;connectable=0;expand=0;recursiveResize=0;editable=1;pointerEvents=0;absoluteArcSize=1;points=[[0.25,0,0],[0.5,0,0],[0.75,0,0],[1,0.25,0],[1,0.5,0],[1,0.75,0],[0.75,1,0],[0.5,1,0],[0.25,1,0],[0,0.75,0],[0,0.5,0],[0,0.25,0]];strokeColor=#FF3333;fillColor=none;" vertex="1" parent="ACHc1v6rXymE3tVFQivt-38">
            <mxGeometry x="370" y="160" width="1910" height="1660" as="geometry" />
          </mxCell>
        </object>
        <mxCell id="ACHc1v6rXymE3tVFQivt-46" style="edgeStyle=orthogonalEdgeStyle;rounded=0;orthogonalLoop=1;jettySize=auto;html=1;entryX=0;entryY=0.5;entryDx=0;entryDy=0;" edge="1" parent="ACHc1v6rXymE3tVFQivt-38" source="ACHc1v6rXymE3tVFQivt-47" target="ACHc1v6rXymE3tVFQivt-50">
          <mxGeometry relative="1" as="geometry" />
        </mxCell>
        <mxCell id="ACHc1v6rXymE3tVFQivt-47" value="Start" style="ellipse;whiteSpace=wrap;html=1;aspect=fixed;" vertex="1" parent="ACHc1v6rXymE3tVFQivt-38">
          <mxGeometry x="400" y="190" width="80" height="80" as="geometry" />
        </mxCell>
        <mxCell id="ACHc1v6rXymE3tVFQivt-48" style="edgeStyle=orthogonalEdgeStyle;rounded=0;orthogonalLoop=1;jettySize=auto;html=1;entryX=0;entryY=0.5;entryDx=0;entryDy=0;" edge="1" parent="ACHc1v6rXymE3tVFQivt-38" source="ACHc1v6rXymE3tVFQivt-50" target="ACHc1v6rXymE3tVFQivt-51">
          <mxGeometry relative="1" as="geometry" />
        </mxCell>
        <mxCell id="ACHc1v6rXymE3tVFQivt-49" style="edgeStyle=orthogonalEdgeStyle;rounded=0;orthogonalLoop=1;jettySize=auto;html=1;entryX=0.5;entryY=0;entryDx=0;entryDy=0;" edge="1" parent="ACHc1v6rXymE3tVFQivt-38" source="ACHc1v6rXymE3tVFQivt-50" target="ACHc1v6rXymE3tVFQivt-53">
          <mxGeometry relative="1" as="geometry" />
        </mxCell>
        <mxCell id="ACHc1v6rXymE3tVFQivt-50" value="SELECT Data" style="rounded=0;whiteSpace=wrap;html=1;" vertex="1" parent="ACHc1v6rXymE3tVFQivt-38">
          <mxGeometry x="580" y="200" width="180" height="60" as="geometry" />
        </mxCell>
        <mxCell id="ACHc1v6rXymE3tVFQivt-51" value="End" style="ellipse;whiteSpace=wrap;html=1;aspect=fixed;" vertex="1" parent="ACHc1v6rXymE3tVFQivt-38">
          <mxGeometry x="2180" y="190" width="80" height="80" as="geometry" />
        </mxCell>
        <mxCell id="ACHc1v6rXymE3tVFQivt-65" style="edgeStyle=orthogonalEdgeStyle;rounded=0;orthogonalLoop=1;jettySize=auto;html=1;entryX=0.5;entryY=0;entryDx=0;entryDy=0;jumpStyle=arc;" edge="1" parent="ACHc1v6rXymE3tVFQivt-38" source="ACHc1v6rXymE3tVFQivt-53" target="ACHc1v6rXymE3tVFQivt-39">
          <mxGeometry relative="1" as="geometry">
            <Array as="points">
              <mxPoint x="1140" y="375" />
            </Array>
          </mxGeometry>
        </mxCell>
        <mxCell id="ACHc1v6rXymE3tVFQivt-66" value="JOIN" style="edgeLabel;html=1;align=center;verticalAlign=middle;resizable=0;points=[];" vertex="1" connectable="0" parent="ACHc1v6rXymE3tVFQivt-65">
          <mxGeometry x="-0.1688" y="-2" relative="1" as="geometry">
            <mxPoint x="181" y="43" as="offset" />
          </mxGeometry>
        </mxCell>
        <mxCell id="ACHc1v6rXymE3tVFQivt-97" style="edgeStyle=orthogonalEdgeStyle;rounded=0;orthogonalLoop=1;jettySize=auto;html=1;entryX=0.5;entryY=0;entryDx=0;entryDy=0;" edge="1" parent="ACHc1v6rXymE3tVFQivt-38" source="ACHc1v6rXymE3tVFQivt-53" target="ACHc1v6rXymE3tVFQivt-58">
          <mxGeometry relative="1" as="geometry" />
        </mxCell>
        <mxCell id="ACHc1v6rXymE3tVFQivt-53" value="m_delivery_type (MDT)" style="swimlane;fontStyle=0;childLayout=stackLayout;horizontal=1;startSize=30;horizontalStack=0;resizeParent=1;resizeParentMax=0;resizeLast=0;collapsible=1;marginBottom=0;whiteSpace=wrap;html=1;" vertex="1" parent="ACHc1v6rXymE3tVFQivt-38">
          <mxGeometry x="570" y="320" width="200" height="200" as="geometry" />
        </mxCell>
        <mxCell id="ACHc1v6rXymE3tVFQivt-54" value="delivery_type" style="text;strokeColor=none;fillColor=none;align=left;verticalAlign=middle;spacingLeft=4;spacingRight=4;overflow=hidden;points=[[0,0.5],[1,0.5]];portConstraint=eastwest;rotatable=0;whiteSpace=wrap;html=1;" vertex="1" parent="ACHc1v6rXymE3tVFQivt-53">
          <mxGeometry y="30" width="200" height="60" as="geometry" />
        </mxCell>
        <mxCell id="ACHc1v6rXymE3tVFQivt-98" value="GREATEST((in_akum_volume / SC3P.volume_divider), (in_akum_weight)) AS Bobot" style="text;strokeColor=none;fillColor=none;align=left;verticalAlign=middle;spacingLeft=4;spacingRight=4;overflow=hidden;points=[[0,0.5],[1,0.5]];portConstraint=eastwest;rotatable=0;whiteSpace=wrap;html=1;" vertex="1" parent="ACHc1v6rXymE3tVFQivt-53">
          <mxGeometry y="90" width="200" height="110" as="geometry" />
        </mxCell>
        <mxCell id="ACHc1v6rXymE3tVFQivt-55" style="edgeStyle=orthogonalEdgeStyle;rounded=0;orthogonalLoop=1;jettySize=auto;html=1;endArrow=none;endFill=0;" edge="1" parent="ACHc1v6rXymE3tVFQivt-38" source="ACHc1v6rXymE3tVFQivt-56">
          <mxGeometry relative="1" as="geometry">
            <mxPoint x="2280" y="205" as="targetPoint" />
          </mxGeometry>
        </mxCell>
        <mxCell id="ACHc1v6rXymE3tVFQivt-56" value="Output" style="swimlane;fontStyle=0;childLayout=stackLayout;horizontal=1;startSize=30;horizontalStack=0;resizeParent=1;resizeParentMax=0;resizeLast=0;collapsible=1;marginBottom=0;whiteSpace=wrap;html=1;" vertex="1" parent="ACHc1v6rXymE3tVFQivt-38">
          <mxGeometry x="2350" y="160" width="153" height="60" as="geometry" />
        </mxCell>
        <mxCell id="ACHc1v6rXymE3tVFQivt-57" value="&lt;div style=&quot;text-align: center;&quot;&gt;&lt;span style=&quot;text-align: left;&quot;&gt;-&lt;/span&gt;&lt;/div&gt;" style="text;strokeColor=none;fillColor=none;align=left;verticalAlign=middle;spacingLeft=4;spacingRight=4;overflow=hidden;points=[[0,0.5],[1,0.5]];portConstraint=eastwest;rotatable=0;whiteSpace=wrap;html=1;" vertex="1" parent="ACHc1v6rXymE3tVFQivt-56">
          <mxGeometry y="30" width="153" height="30" as="geometry" />
        </mxCell>
        <mxCell id="ACHc1v6rXymE3tVFQivt-58" value="WHERE" style="swimlane;fontStyle=0;childLayout=stackLayout;horizontal=1;startSize=30;horizontalStack=0;resizeParent=1;resizeParentMax=0;resizeLast=0;collapsible=1;marginBottom=0;whiteSpace=wrap;html=1;" vertex="1" parent="ACHc1v6rXymE3tVFQivt-38">
          <mxGeometry x="592.5" y="570" width="155" height="170" as="geometry" />
        </mxCell>
        <mxCell id="ACHc1v6rXymE3tVFQivt-59" value="MDT.delivery_type = &#39;Instant&#39;;&lt;div&gt;MDT.status = true;&lt;/div&gt;&lt;div&gt;&lt;br&gt;&lt;/div&gt;&lt;div&gt;GREATEST((in_akum_volume / SC3P.volume_divider), (in_akum_weight)) BETWEEN (SC3P.min_weight, SC3P.max_weight)&lt;/div&gt;" style="text;strokeColor=none;fillColor=none;align=left;verticalAlign=middle;spacingLeft=4;spacingRight=4;overflow=hidden;points=[[0,0.5],[1,0.5]];portConstraint=eastwest;rotatable=0;whiteSpace=wrap;html=1;" vertex="1" parent="ACHc1v6rXymE3tVFQivt-58">
          <mxGeometry y="30" width="155" height="140" as="geometry" />
        </mxCell>
        <mxCell id="ACHc1v6rXymE3tVFQivt-67" style="edgeStyle=orthogonalEdgeStyle;rounded=0;orthogonalLoop=1;jettySize=auto;html=1;endArrow=none;endFill=0;dashed=1;" edge="1" parent="ACHc1v6rXymE3tVFQivt-38" source="ACHc1v6rXymE3tVFQivt-61">
          <mxGeometry relative="1" as="geometry">
            <mxPoint x="1150" y="420" as="targetPoint" />
          </mxGeometry>
        </mxCell>
        <mxCell id="ACHc1v6rXymE3tVFQivt-61" value="ON" style="swimlane;fontStyle=0;childLayout=stackLayout;horizontal=1;startSize=30;horizontalStack=0;resizeParent=1;resizeParentMax=0;resizeLast=0;collapsible=1;marginBottom=0;whiteSpace=wrap;html=1;" vertex="1" parent="ACHc1v6rXymE3tVFQivt-38">
          <mxGeometry x="1391" y="420" width="170" height="110" as="geometry" />
        </mxCell>
        <mxCell id="ACHc1v6rXymE3tVFQivt-62" value="MDT.delivery_type = MC3P.delivery_type&lt;div&gt;&lt;br&gt;&lt;/div&gt;&lt;div&gt;MC3P.status = true&lt;/div&gt;" style="text;strokeColor=none;fillColor=none;align=left;verticalAlign=middle;spacingLeft=4;spacingRight=4;overflow=hidden;points=[[0,0.5],[1,0.5]];portConstraint=eastwest;rotatable=0;whiteSpace=wrap;html=1;" vertex="1" parent="ACHc1v6rXymE3tVFQivt-61">
          <mxGeometry y="30" width="170" height="80" as="geometry" />
        </mxCell>
        <mxCell id="ACHc1v6rXymE3tVFQivt-68" value="s_courier_3rd_party&amp;nbsp; (SC3P)" style="swimlane;fontStyle=0;childLayout=stackLayout;horizontal=1;startSize=30;horizontalStack=0;resizeParent=1;resizeParentMax=0;resizeLast=0;collapsible=1;marginBottom=0;whiteSpace=wrap;html=1;" vertex="1" parent="ACHc1v6rXymE3tVFQivt-38">
          <mxGeometry x="1396" y="580" width="160" height="110" as="geometry" />
        </mxCell>
        <mxCell id="ACHc1v6rXymE3tVFQivt-69" value="delivery_type&lt;div&gt;status&lt;/div&gt;&lt;div&gt;volume_divider&lt;/div&gt;&lt;div&gt;min_weight&lt;/div&gt;&lt;div&gt;max_weight&lt;/div&gt;" style="text;strokeColor=none;fillColor=none;align=left;verticalAlign=middle;spacingLeft=4;spacingRight=4;overflow=hidden;points=[[0,0.5],[1,0.5]];portConstraint=eastwest;rotatable=0;whiteSpace=wrap;html=1;" vertex="1" parent="ACHc1v6rXymE3tVFQivt-68">
          <mxGeometry y="30" width="160" height="80" as="geometry" />
        </mxCell>
        <mxCell id="ACHc1v6rXymE3tVFQivt-75" value="s_courier_3rd_party_detail_delivery_site&amp;nbsp; (SC3PDDS)" style="swimlane;fontStyle=0;childLayout=stackLayout;horizontal=1;startSize=30;horizontalStack=0;resizeParent=1;resizeParentMax=0;resizeLast=0;collapsible=1;marginBottom=0;whiteSpace=wrap;html=1;" vertex="1" parent="ACHc1v6rXymE3tVFQivt-38">
          <mxGeometry x="1391" y="910" width="229" height="100" as="geometry" />
        </mxCell>
        <mxCell id="ACHc1v6rXymE3tVFQivt-76" value="&lt;div&gt;status&lt;/div&gt;&lt;div&gt;courier_id&lt;/div&gt;" style="text;strokeColor=none;fillColor=none;align=left;verticalAlign=middle;spacingLeft=4;spacingRight=4;overflow=hidden;points=[[0,0.5],[1,0.5]];portConstraint=eastwest;rotatable=0;whiteSpace=wrap;html=1;" vertex="1" parent="ACHc1v6rXymE3tVFQivt-75">
          <mxGeometry y="30" width="229" height="70" as="geometry" />
        </mxCell>
        <mxCell id="ACHc1v6rXymE3tVFQivt-82" style="edgeStyle=orthogonalEdgeStyle;rounded=0;orthogonalLoop=1;jettySize=auto;html=1;endArrow=none;endFill=0;dashed=1;" edge="1" parent="ACHc1v6rXymE3tVFQivt-38" source="ACHc1v6rXymE3tVFQivt-77">
          <mxGeometry relative="1" as="geometry">
            <mxPoint x="1640" y="770" as="targetPoint" />
            <Array as="points">
              <mxPoint x="1760" y="770" />
              <mxPoint x="1760" y="770" />
            </Array>
          </mxGeometry>
        </mxCell>
        <mxCell id="ACHc1v6rXymE3tVFQivt-77" value="ON" style="swimlane;fontStyle=0;childLayout=stackLayout;horizontal=1;startSize=30;horizontalStack=0;resizeParent=1;resizeParentMax=0;resizeLast=0;collapsible=1;marginBottom=0;whiteSpace=wrap;html=1;" vertex="1" parent="ACHc1v6rXymE3tVFQivt-38">
          <mxGeometry x="1810" y="740" width="170" height="110" as="geometry" />
        </mxCell>
        <mxCell id="ACHc1v6rXymE3tVFQivt-79" value="SC3PDDS.courier_id = SC3P.courier_id&lt;div&gt;&lt;br&gt;&lt;/div&gt;&lt;div&gt;SC3PDDS.status = true&lt;/div&gt;" style="text;strokeColor=none;fillColor=none;align=left;verticalAlign=middle;spacingLeft=4;spacingRight=4;overflow=hidden;points=[[0,0.5],[1,0.5]];portConstraint=eastwest;rotatable=0;whiteSpace=wrap;html=1;" vertex="1" parent="ACHc1v6rXymE3tVFQivt-77">
          <mxGeometry y="30" width="170" height="80" as="geometry" />
        </mxCell>
        <mxCell id="ACHc1v6rXymE3tVFQivt-80" style="edgeStyle=orthogonalEdgeStyle;rounded=0;orthogonalLoop=1;jettySize=auto;html=1;entryX=1;entryY=0.18;entryDx=0;entryDy=0;entryPerimeter=0;" edge="1" parent="ACHc1v6rXymE3tVFQivt-38" source="ACHc1v6rXymE3tVFQivt-68" target="ACHc1v6rXymE3tVFQivt-75">
          <mxGeometry relative="1" as="geometry">
            <Array as="points">
              <mxPoint x="1640" y="630" />
              <mxPoint x="1640" y="928" />
            </Array>
          </mxGeometry>
        </mxCell>
        <mxCell id="ACHc1v6rXymE3tVFQivt-81" value="JOIN" style="edgeLabel;html=1;align=center;verticalAlign=middle;resizable=0;points=[];" vertex="1" connectable="0" parent="ACHc1v6rXymE3tVFQivt-80">
          <mxGeometry x="0.0995" y="-1" relative="1" as="geometry">
            <mxPoint as="offset" />
          </mxGeometry>
        </mxCell>
        <mxCell id="ACHc1v6rXymE3tVFQivt-85" style="edgeStyle=orthogonalEdgeStyle;rounded=0;orthogonalLoop=1;jettySize=auto;html=1;entryX=0;entryY=0.5;entryDx=0;entryDy=0;" edge="1" parent="ACHc1v6rXymE3tVFQivt-38" source="ACHc1v6rXymE3tVFQivt-83" target="ACHc1v6rXymE3tVFQivt-40">
          <mxGeometry relative="1" as="geometry">
            <Array as="points">
              <mxPoint x="960" y="800" />
              <mxPoint x="960" y="565" />
            </Array>
          </mxGeometry>
        </mxCell>
        <mxCell id="ACHc1v6rXymE3tVFQivt-89" value="JOIN" style="edgeLabel;html=1;align=center;verticalAlign=middle;resizable=0;points=[];" vertex="1" connectable="0" parent="ACHc1v6rXymE3tVFQivt-85">
          <mxGeometry x="-0.8013" relative="1" as="geometry">
            <mxPoint as="offset" />
          </mxGeometry>
        </mxCell>
        <mxCell id="ACHc1v6rXymE3tVFQivt-83" value="m_api_service (MAS)" style="swimlane;fontStyle=0;childLayout=stackLayout;horizontal=1;startSize=30;horizontalStack=0;resizeParent=1;resizeParentMax=0;resizeLast=0;collapsible=1;marginBottom=0;whiteSpace=wrap;html=1;" vertex="1" parent="ACHc1v6rXymE3tVFQivt-38">
          <mxGeometry x="1001" y="750" width="229" height="100" as="geometry" />
        </mxCell>
        <mxCell id="ACHc1v6rXymE3tVFQivt-84" value="&lt;div&gt;api_service_id&lt;/div&gt;" style="text;strokeColor=none;fillColor=none;align=left;verticalAlign=middle;spacingLeft=4;spacingRight=4;overflow=hidden;points=[[0,0.5],[1,0.5]];portConstraint=eastwest;rotatable=0;whiteSpace=wrap;html=1;" vertex="1" parent="ACHc1v6rXymE3tVFQivt-83">
          <mxGeometry y="30" width="229" height="70" as="geometry" />
        </mxCell>
        <mxCell id="ACHc1v6rXymE3tVFQivt-88" style="edgeStyle=orthogonalEdgeStyle;rounded=0;orthogonalLoop=1;jettySize=auto;html=1;endArrow=none;endFill=0;dashed=1;" edge="1" parent="ACHc1v6rXymE3tVFQivt-38" source="ACHc1v6rXymE3tVFQivt-86">
          <mxGeometry relative="1" as="geometry">
            <mxPoint x="960" y="790" as="targetPoint" />
            <Array as="points">
              <mxPoint x="960" y="1020" />
              <mxPoint x="960" y="820" />
            </Array>
          </mxGeometry>
        </mxCell>
        <mxCell id="ACHc1v6rXymE3tVFQivt-86" value="ON" style="swimlane;fontStyle=0;childLayout=stackLayout;horizontal=1;startSize=30;horizontalStack=0;resizeParent=1;resizeParentMax=0;resizeLast=0;collapsible=1;marginBottom=0;whiteSpace=wrap;html=1;" vertex="1" parent="ACHc1v6rXymE3tVFQivt-38">
          <mxGeometry x="1020" y="965" width="170" height="110" as="geometry" />
        </mxCell>
        <mxCell id="ACHc1v6rXymE3tVFQivt-87" value="MAS.api_service_id = MC3P.api_service_id" style="text;strokeColor=none;fillColor=none;align=left;verticalAlign=middle;spacingLeft=4;spacingRight=4;overflow=hidden;points=[[0,0.5],[1,0.5]];portConstraint=eastwest;rotatable=0;whiteSpace=wrap;html=1;" vertex="1" parent="ACHc1v6rXymE3tVFQivt-86">
          <mxGeometry y="30" width="170" height="80" as="geometry" />
        </mxCell>
        <mxCell id="ACHc1v6rXymE3tVFQivt-92" style="edgeStyle=orthogonalEdgeStyle;rounded=0;orthogonalLoop=1;jettySize=auto;html=1;entryX=0;entryY=0.5;entryDx=0;entryDy=0;" edge="1" parent="ACHc1v6rXymE3tVFQivt-38" source="ACHc1v6rXymE3tVFQivt-90" target="ACHc1v6rXymE3tVFQivt-84">
          <mxGeometry relative="1" as="geometry">
            <mxPoint x="940" y="1110" as="targetPoint" />
            <Array as="points">
              <mxPoint x="940" y="1240" />
              <mxPoint x="940" y="815" />
            </Array>
          </mxGeometry>
        </mxCell>
        <mxCell id="ACHc1v6rXymE3tVFQivt-93" value="JOIN" style="edgeLabel;html=1;align=center;verticalAlign=middle;resizable=0;points=[];" vertex="1" connectable="0" parent="ACHc1v6rXymE3tVFQivt-92">
          <mxGeometry x="-0.0628" y="3" relative="1" as="geometry">
            <mxPoint as="offset" />
          </mxGeometry>
        </mxCell>
        <mxCell id="ACHc1v6rXymE3tVFQivt-90" value="m_api_service_endpoint (MASE)" style="swimlane;fontStyle=0;childLayout=stackLayout;horizontal=1;startSize=30;horizontalStack=0;resizeParent=1;resizeParentMax=0;resizeLast=0;collapsible=1;marginBottom=0;whiteSpace=wrap;html=1;" vertex="1" parent="ACHc1v6rXymE3tVFQivt-38">
          <mxGeometry x="1020" y="1190" width="229" height="100" as="geometry" />
        </mxCell>
        <mxCell id="ACHc1v6rXymE3tVFQivt-91" value="&lt;div&gt;api_service_id&lt;/div&gt;" style="text;strokeColor=none;fillColor=none;align=left;verticalAlign=middle;spacingLeft=4;spacingRight=4;overflow=hidden;points=[[0,0.5],[1,0.5]];portConstraint=eastwest;rotatable=0;whiteSpace=wrap;html=1;" vertex="1" parent="ACHc1v6rXymE3tVFQivt-90">
          <mxGeometry y="30" width="229" height="70" as="geometry" />
        </mxCell>
        <mxCell id="ACHc1v6rXymE3tVFQivt-96" style="edgeStyle=orthogonalEdgeStyle;rounded=0;orthogonalLoop=1;jettySize=auto;html=1;dashed=1;endArrow=none;endFill=0;" edge="1" parent="ACHc1v6rXymE3tVFQivt-38" source="ACHc1v6rXymE3tVFQivt-94">
          <mxGeometry relative="1" as="geometry">
            <mxPoint x="940" y="1060" as="targetPoint" />
            <Array as="points">
              <mxPoint x="880" y="1465" />
              <mxPoint x="880" y="1060" />
              <mxPoint x="910" y="1060" />
            </Array>
          </mxGeometry>
        </mxCell>
        <mxCell id="ACHc1v6rXymE3tVFQivt-94" value="ON" style="swimlane;fontStyle=0;childLayout=stackLayout;horizontal=1;startSize=30;horizontalStack=0;resizeParent=1;resizeParentMax=0;resizeLast=0;collapsible=1;marginBottom=0;whiteSpace=wrap;html=1;" vertex="1" parent="ACHc1v6rXymE3tVFQivt-38">
          <mxGeometry x="1020" y="1410" width="170" height="110" as="geometry" />
        </mxCell>
        <mxCell id="ACHc1v6rXymE3tVFQivt-95" value="MAS.api_service_id = MC3P.api_service_id" style="text;strokeColor=none;fillColor=none;align=left;verticalAlign=middle;spacingLeft=4;spacingRight=4;overflow=hidden;points=[[0,0.5],[1,0.5]];portConstraint=eastwest;rotatable=0;whiteSpace=wrap;html=1;" vertex="1" parent="ACHc1v6rXymE3tVFQivt-94">
          <mxGeometry y="30" width="170" height="80" as="geometry" />
        </mxCell>
        <mxCell id="ACHc1v6rXymE3tVFQivt-71" value="ON" style="swimlane;fontStyle=0;childLayout=stackLayout;horizontal=1;startSize=30;horizontalStack=0;resizeParent=1;resizeParentMax=0;resizeLast=0;collapsible=1;marginBottom=0;whiteSpace=wrap;html=1;" vertex="1" parent="1">
          <mxGeometry x="1731" y="10340" width="170" height="110" as="geometry" />
        </mxCell>
        <mxCell id="ACHc1v6rXymE3tVFQivt-74" style="edgeStyle=orthogonalEdgeStyle;rounded=0;orthogonalLoop=1;jettySize=auto;html=1;endArrow=none;endFill=0;dashed=1;" edge="1" parent="ACHc1v6rXymE3tVFQivt-71" source="ACHc1v6rXymE3tVFQivt-72">
          <mxGeometry relative="1" as="geometry">
            <mxPoint x="-61.000000000000455" y="-130" as="targetPoint" />
          </mxGeometry>
        </mxCell>
        <mxCell id="ACHc1v6rXymE3tVFQivt-72" value="SC3P.delivery_type = MC3P.delivery_type&lt;div&gt;&lt;br&gt;&lt;/div&gt;&lt;div&gt;SC3P.status = true&lt;/div&gt;" style="text;strokeColor=none;fillColor=none;align=left;verticalAlign=middle;spacingLeft=4;spacingRight=4;overflow=hidden;points=[[0,0.5],[1,0.5]];portConstraint=eastwest;rotatable=0;whiteSpace=wrap;html=1;" vertex="1" parent="ACHc1v6rXymE3tVFQivt-71">
          <mxGeometry y="30" width="170" height="80" as="geometry" />
        </mxCell>
      </root>
    </mxGraphModel>
  </diagram>
</mxfile>
